<svg width="24" height="18" viewBox="0 0 24 18" fill="none" xmlns="http://www.w3.org/2000/svg">
<g clip-path="url(#clip0_2750_5064)">
<path d="M8.32494 17.3625C8.12494 17.3625 7.93744 17.331 7.76244 17.268C7.58744 17.206 7.42494 17.1 7.27494 16.95L0.82494 10.5C0.54994 10.225 0.41844 9.86847 0.43044 9.43047C0.44344 8.99347 0.58744 8.63747 0.86244 8.36247C1.13744 8.08747 1.48744 7.94998 1.91244 7.94998C2.33744 7.94998 2.68744 8.08747 2.96244 8.36247L8.32494 13.725L21.0374 1.01248C21.3124 0.737476 21.6689 0.599976 22.1069 0.599976C22.5439 0.599976 22.8999 0.737476 23.1749 1.01248C23.4499 1.28748 23.5874 1.64348 23.5874 2.08048C23.5874 2.51848 23.4499 2.87498 23.1749 3.14998L9.37494 16.95C9.22494 17.1 9.06244 17.206 8.88744 17.268C8.71244 17.331 8.52494 17.3625 8.32494 17.3625Z" fill="#07B862"/>
</g>
<defs>
<clipPath id="clip0_2750_5064">
<rect width="24" height="18" fill="white"/>
</clipPath>
</defs>
</svg>
