<svg width="48" height="48" viewBox="0 0 48 48" fill="none" xmlns="http://www.w3.org/2000/svg">
<rect width="48" height="48" rx="24" fill="#00B6CE"/>
<g clip-path="url(#clip0_3310_21301)">
<path d="M30.885 19.5H28.5V12C28.5 11.175 27.825 10.5 27 10.5H21C20.175 10.5 19.5 11.175 19.5 12V19.5H17.115C15.78 19.5 15.105 21.12 16.05 22.065L22.935 28.95C23.52 29.535 24.465 29.535 25.05 28.95L31.935 22.065C32.88 21.12 32.22 19.5 30.885 19.5ZM13.5 34.5C13.5 35.325 14.175 36 15 36H33C33.825 36 34.5 35.325 34.5 34.5C34.5 33.675 33.825 33 33 33H15C14.175 33 13.5 33.675 13.5 34.5Z" fill="white"/>
</g>
<defs>
<clipPath id="clip0_3310_21301">
<rect width="36" height="36" fill="white" transform="translate(6 6)"/>
</clipPath>
</defs>
</svg>
