<svg width="49" height="48" viewBox="0 0 49 48" fill="none" xmlns="http://www.w3.org/2000/svg">
<rect x="0.428467" width="48" height="48" rx="24" fill="#00B6CE"/>
<g clip-path="url(#clip0_3310_20809)">
<path d="M31.3135 19.5H28.9285V12C28.9285 11.175 28.2535 10.5 27.4285 10.5H21.4285C20.6035 10.5 19.9285 11.175 19.9285 12V19.5H17.5435C16.2085 19.5 15.5335 21.12 16.4785 22.065L23.3635 28.95C23.9485 29.535 24.8935 29.535 25.4785 28.95L32.3635 22.065C33.3085 21.12 32.6485 19.5 31.3135 19.5ZM13.9285 34.5C13.9285 35.325 14.6035 36 15.4285 36H33.4285C34.2535 36 34.9285 35.325 34.9285 34.5C34.9285 33.675 34.2535 33 33.4285 33H15.4285C14.6035 33 13.9285 33.675 13.9285 34.5Z" fill="white"/>
</g>
<defs>
<clipPath id="clip0_3310_20809">
<rect width="36" height="36" fill="white" transform="translate(6.42847 6)"/>
</clipPath>
</defs>
</svg>
