<svg width="32" height="32" viewBox="0 0 32 32" fill="none" xmlns="http://www.w3.org/2000/svg">
<path d="M26.6665 23.9999H5.33317V10.6666H26.6665V23.9999ZM15.9998 7.99992L13.3332 5.33325H5.33317C4.62593 5.33325 3.94765 5.6142 3.44755 6.1143C2.94746 6.6144 2.6665 7.29267 2.6665 7.99992V23.9999C2.6665 24.7072 2.94746 25.3854 3.44755 25.8855C3.94765 26.3856 4.62593 26.6666 5.33317 26.6666H26.6665C28.1465 26.6666 29.3332 25.4799 29.3332 23.9999V10.6666C29.3332 9.95934 29.0522 9.28106 28.5521 8.78097C28.052 8.28087 27.3737 7.99992 26.6665 7.99992H15.9998ZM14.6665 18.6666V15.9999H19.9998V11.9999L25.3332 17.3333L19.9998 22.6666V18.6666H14.6665Z" fill="white"/>
</svg>
