<svg width="52" height="50" viewBox="0 0 52 50" fill="none" xmlns="http://www.w3.org/2000/svg">
<circle cx="24.4287" cy="26" r="23.1429" fill="#FAFAFB" stroke="#002D45" stroke-width="1.71429"/>
<g clip-path="url(#clip0_3310_21406)">
<path d="M31.2861 15.7145H27.6518C27.1718 14.3888 25.9147 13.4288 24.429 13.4288C22.9433 13.4288 21.6861 14.3888 21.2061 15.7145H17.5718C16.3147 15.7145 15.2861 16.7431 15.2861 18.0003V35.1431C15.2861 36.4003 16.3147 37.4288 17.5718 37.4288H24.5547C23.8804 36.7774 23.3318 36.0003 22.9318 35.1431H17.5718V18.0003H19.8576V19.1431C19.8576 20.4003 20.8861 21.4288 22.1433 21.4288H26.7147C27.9718 21.4288 29.0004 20.4003 29.0004 19.1431V18.0003H31.2861V23.806C32.0976 23.9203 32.8633 24.1603 33.5718 24.4917V18.0003C33.5718 16.7431 32.5433 15.7145 31.2861 15.7145ZM24.429 18.0003C23.8004 18.0003 23.2861 17.486 23.2861 16.8574C23.2861 16.2288 23.8004 15.7145 24.429 15.7145C25.0576 15.7145 25.5718 16.2288 25.5718 16.8574C25.5718 17.486 25.0576 18.0003 24.429 18.0003ZM30.1433 26.0003C26.989 26.0003 24.429 28.5603 24.429 31.7145C24.429 34.8688 26.989 37.4288 30.1433 37.4288C33.2976 37.4288 35.8576 34.8688 35.8576 31.7145C35.8576 28.5603 33.2976 26.0003 30.1433 26.0003ZM31.6176 34.0003L29.7318 32.1145C29.629 32.0117 29.5604 31.8631 29.5604 31.7145V28.8688C29.5604 28.5488 29.8118 28.2974 30.1318 28.2974C30.4518 28.2974 30.7033 28.5488 30.7033 28.8688V31.486L32.4176 33.2003C32.6461 33.4288 32.6461 33.7831 32.4176 34.0117C32.2004 34.2288 31.8461 34.2288 31.6176 34.0003Z" fill="#002D45"/>
</g>
<circle cx="41.5714" cy="10.5715" r="9.42857" fill="#D32F2F" stroke="#FAFAFB" stroke-width="1.71429"/>
<path d="M40.6323 13.2419C40.7523 13.2419 40.8466 13.2779 40.9152 13.3499C40.9838 13.4185 41.0181 13.5076 41.0181 13.6173V14.2859H36.0089V13.9105C36.0089 13.835 36.0243 13.7562 36.0552 13.6739C36.0861 13.5916 36.1358 13.5162 36.2043 13.4476L38.5083 11.1385C38.7038 10.943 38.8769 10.7562 39.0278 10.5779C39.1821 10.3996 39.3123 10.2213 39.4186 10.043C39.5283 9.86475 39.6106 9.68475 39.6655 9.50303C39.7238 9.31789 39.7529 9.12417 39.7529 8.92189C39.7529 8.72646 39.7221 8.55503 39.6603 8.4076C39.6021 8.25675 39.5198 8.13332 39.4135 8.03732C39.3106 7.93789 39.1855 7.86417 39.0381 7.81617C38.8941 7.76475 38.7346 7.73903 38.5598 7.73903C38.3918 7.73903 38.2358 7.76303 38.0918 7.81103C37.9512 7.85903 37.8243 7.92589 37.7112 8.0116C37.6015 8.09732 37.5089 8.20017 37.4335 8.32017C37.3615 8.43675 37.3083 8.56532 37.2741 8.70589C37.2226 8.84646 37.1558 8.94075 37.0735 8.98875C36.9946 9.03675 36.8781 9.04703 36.7238 9.0196L36.1426 8.91675C36.1941 8.56703 36.2901 8.26017 36.4306 7.99617C36.5746 7.73217 36.7546 7.51275 36.9706 7.33789C37.1866 7.1596 37.4335 7.02589 37.7112 6.93675C37.9923 6.84417 38.2958 6.79789 38.6215 6.79789C38.9506 6.79789 39.2523 6.8476 39.5266 6.94703C39.8043 7.04303 40.0426 7.18189 40.2415 7.3636C40.4438 7.54189 40.6015 7.7596 40.7146 8.01675C40.8278 8.27389 40.8843 8.5636 40.8843 8.88589C40.8843 9.16017 40.8432 9.41389 40.7609 9.64703C40.6821 9.88017 40.5741 10.103 40.4369 10.3156C40.2998 10.5282 40.1386 10.7356 39.9535 10.9379C39.7718 11.1367 39.5798 11.339 39.3775 11.5447L37.5878 13.3756C37.7352 13.3345 37.8826 13.3019 38.0301 13.2779C38.1809 13.2539 38.3232 13.2419 38.4569 13.2419H40.6323ZM45.2463 11.5499V8.84475C45.2463 8.62875 45.2617 8.39217 45.2926 8.13503L42.8034 11.5499H45.2463ZM47.2314 11.5499V12.1876C47.2314 12.2493 47.2109 12.3025 47.1697 12.347C47.132 12.3916 47.0737 12.4139 46.9949 12.4139H46.208V14.2859H45.2463V12.4139H42.0423C41.9634 12.4139 41.8949 12.3916 41.8366 12.347C41.7817 12.299 41.7457 12.2407 41.7286 12.1722L41.6154 11.6065L45.1692 6.87503H46.208V11.5499H47.2314Z" fill="#FAFAFB"/>
<defs>
<clipPath id="clip0_3310_21406">
<rect width="27.4286" height="27.4286" fill="white" transform="translate(10.7144 12.2858)"/>
</clipPath>
</defs>
</svg>
