<svg width="28" height="32" viewBox="0 0 28 32" fill="none" xmlns="http://www.w3.org/2000/svg">
<path d="M21.3333 3.04762H16.4876C15.8476 1.28 14.1714 0 12.1905 0C10.2095 0 8.53333 1.28 7.89333 3.04762H3.04762C1.37143 3.04762 0 4.41905 0 6.09524V28.9524C0 30.6286 1.37143 32 3.04762 32H12.3581C11.459 31.1314 10.7276 30.0952 10.1943 28.9524H3.04762V6.09524H6.09524V7.61905C6.09524 9.29524 7.46667 10.6667 9.14286 10.6667H15.2381C16.9143 10.6667 18.2857 9.29524 18.2857 7.61905V6.09524H21.3333V13.8362C22.4152 13.9886 23.4362 14.3086 24.381 14.7505V6.09524C24.381 4.41905 23.0095 3.04762 21.3333 3.04762ZM12.1905 6.09524C11.3524 6.09524 10.6667 5.40952 10.6667 4.57143C10.6667 3.73333 11.3524 3.04762 12.1905 3.04762C13.0286 3.04762 13.7143 3.73333 13.7143 4.57143C13.7143 5.40952 13.0286 6.09524 12.1905 6.09524ZM19.8095 16.7619C15.6038 16.7619 12.1905 20.1752 12.1905 24.381C12.1905 28.5867 15.6038 32 19.8095 32C24.0152 32 27.4286 28.5867 27.4286 24.381C27.4286 20.1752 24.0152 16.7619 19.8095 16.7619ZM21.7752 27.4286L19.261 24.9143C19.1238 24.7771 19.0324 24.579 19.0324 24.381V20.5867C19.0324 20.16 19.3676 19.8248 19.7943 19.8248C20.221 19.8248 20.5562 20.16 20.5562 20.5867V24.0762L22.8419 26.3619C23.1467 26.6667 23.1467 27.139 22.8419 27.4438C22.5524 27.7333 22.08 27.7333 21.7752 27.4286Z" fill="#002D45"/>
</svg>
