<svg width="32" height="32" viewBox="0 0 32 32" fill="none" xmlns="http://www.w3.org/2000/svg">
<rect x="0.5" y="0.5" width="31" height="31" rx="15.5" stroke="#001B2A"/>
<path d="M16 19.167C17.7175 19.167 20.3211 19.602 22.4824 20.4678C23.5625 20.9005 24.5008 21.4287 25.1611 22.0381C25.8181 22.6444 26.166 23.298 26.166 24.001V25.334C26.166 25.7912 25.7902 26.167 25.333 26.167H6.66602C6.20897 26.1668 5.83301 25.7911 5.83301 25.334V24.001C5.83301 23.298 6.18094 22.6444 6.83789 22.0381C7.49824 21.4286 8.43729 20.9005 9.51758 20.4678C11.6789 19.602 14.2826 19.167 16 19.167ZM16 5.83398C18.6703 5.83416 20.8328 7.99673 20.833 10.667C20.833 13.3374 18.6704 15.5008 16 15.501C13.3295 15.501 11.166 13.3375 11.166 10.667C11.1662 7.99662 13.3296 5.83398 16 5.83398Z" fill="#2B5165" stroke="black"/>
</svg>
