<svg width="21" height="23" viewBox="0 0 21 23" fill="none" xmlns="http://www.w3.org/2000/svg">
<path d="M12.6665 3L11.7065 1.06667C11.4798 0.613332 11.0132 0.333332 10.5065 0.333332H1.99984C1.2665 0.333332 0.666504 0.933332 0.666504 1.66667V21.6667C0.666504 22.4 1.2665 23 1.99984 23C2.73317 23 3.33317 22.4 3.33317 21.6667V13.6667H9.99984L10.9598 15.6C11.1865 16.0533 11.6532 16.3333 12.1465 16.3333H19.3332C20.0665 16.3333 20.6665 15.7333 20.6665 15V4.33333C20.6665 3.6 20.0665 3 19.3332 3H12.6665ZM17.9998 13.6667H12.6665L11.3332 11H3.33317V3H9.99984L11.3332 5.66667H17.9998V13.6667Z" fill="white"/>
</svg>
