<svg width="33" height="32" viewBox="0 0 33 32" fill="none" xmlns="http://www.w3.org/2000/svg">
<g clip-path="url(#clip0_2750_5179)">
<path d="M24.5 21.44C23.4867 21.44 22.58 21.84 21.8867 22.4667L12.38 16.9334C12.4467 16.6267 12.5 16.32 12.5 16C12.5 15.68 12.4467 15.3734 12.38 15.0667L21.78 9.58669C22.5 10.2534 23.4467 10.6667 24.5 10.6667C26.7133 10.6667 28.5 8.88002 28.5 6.66669C28.5 4.45335 26.7133 2.66669 24.5 2.66669C22.2867 2.66669 20.5 4.45335 20.5 6.66669C20.5 6.98669 20.5533 7.29335 20.62 7.60002L11.22 13.08C10.5 12.4134 9.55333 12 8.5 12C6.28667 12 4.5 13.7867 4.5 16C4.5 18.2134 6.28667 20 8.5 20C9.55333 20 10.5 19.5867 11.22 18.92L20.7133 24.4667C20.6467 24.7467 20.6067 25.04 20.6067 25.3334C20.6067 27.48 22.3533 29.2267 24.5 29.2267C26.6467 29.2267 28.3933 27.48 28.3933 25.3334C28.3933 23.1867 26.6467 21.44 24.5 21.44ZM24.5 5.33335C25.2333 5.33335 25.8333 5.93335 25.8333 6.66669C25.8333 7.40002 25.2333 8.00002 24.5 8.00002C23.7667 8.00002 23.1667 7.40002 23.1667 6.66669C23.1667 5.93335 23.7667 5.33335 24.5 5.33335ZM8.5 17.3334C7.76667 17.3334 7.16667 16.7334 7.16667 16C7.16667 15.2667 7.76667 14.6667 8.5 14.6667C9.23333 14.6667 9.83333 15.2667 9.83333 16C9.83333 16.7334 9.23333 17.3334 8.5 17.3334ZM24.5 26.6934C23.7667 26.6934 23.1667 26.0934 23.1667 25.36C23.1667 24.6267 23.7667 24.0267 24.5 24.0267C25.2333 24.0267 25.8333 24.6267 25.8333 25.36C25.8333 26.0934 25.2333 26.6934 24.5 26.6934Z" fill="white"/>
</g>
<defs>
<clipPath id="clip0_2750_5179">
<rect width="32" height="32" fill="white" transform="translate(0.5)"/>
</clipPath>
</defs>
</svg>
