<svg width="684" height="219" viewBox="0 0 684 219" fill="none" xmlns="http://www.w3.org/2000/svg">
<g clip-path="url(#clip0_1596_41071)">
<path d="M491.21 218.89C489.29 218.89 487.27 218.8 485.21 218.62L485.72 212.64C489.83 212.99 493.67 212.96 497.08 212.55L497.81 218.51C495.73 218.76 493.51 218.89 491.21 218.89ZM472.97 216.72C469.15 215.89 465.16 214.81 461.11 213.52L462.93 207.8C466.8 209.03 470.61 210.06 474.25 210.86L472.97 216.72ZM510.3 214.77L507.46 209.48C507.99 209.2 508.5 208.89 508.98 208.58C511.28 207.08 513.87 205.22 516.91 202.89L520.56 207.65C517.4 210.07 514.69 212.01 512.26 213.6C511.64 214.01 510.98 214.41 510.3 214.77ZM449.6 209.34C445.8 207.8 442.04 206.11 438.44 204.32L441.11 198.95C444.58 200.67 448.19 202.3 451.85 203.78L449.6 209.34ZM530.04 200.08L526.22 195.46C528.89 193.25 531.8 190.8 535.38 187.75L539.27 192.32C535.67 195.38 532.73 197.85 530.04 200.08ZM427.69 198.38C423.41 195.73 419.91 193.12 417.55 190.84L421.72 186.53C423.77 188.52 426.93 190.85 430.85 193.28L427.69 198.38ZM548.4 184.49L544.49 179.94C547.51 177.34 550.57 174.72 553.64 172.12L557.52 176.69C554.47 179.28 551.42 181.9 548.4 184.49ZM409.83 181.2C407.43 178.27 404.82 175.28 402.04 172.33L406.42 168.23C409.28 171.28 411.99 174.37 414.47 177.41L409.83 181.2ZM566.69 168.98L562.87 164.36C566.29 161.53 569.37 159.04 572.28 156.76L575.99 161.48C573.12 163.73 570.08 166.19 566.69 168.98ZM393.7 163.94C390.87 161.26 387.91 158.6 384.89 156.03L388.78 151.46C391.88 154.1 394.92 156.83 397.83 159.59L393.7 163.94ZM585.47 154.33L581.98 149.45C585.71 146.78 589.16 144.5 592.23 142.69L595.28 147.86C592.36 149.58 589.06 151.76 585.47 154.33ZM375.67 148.59C372.58 146.22 369.35 143.88 366.08 141.63L369.48 136.69C372.83 139 376.14 141.4 379.31 143.83L375.67 148.59ZM605.45 143.1L603.77 137.34C604.56 137.11 605.33 136.92 606.06 136.79C607.59 136.5 609.2 136.2 610.86 135.89L615.84 134.96L616.95 140.86L611.96 141.79C610.3 142.1 608.7 142.4 607.17 142.69C606.63 142.78 606.05 142.92 605.45 143.1ZM628.78 138.53L627.56 132.65C631.83 131.77 635.63 130.92 639.18 130.05L640.6 135.88C636.99 136.76 633.12 137.63 628.78 138.53ZM356.16 135.14C352.84 133.08 349.4 131.06 345.94 129.13L348.86 123.89C352.4 125.87 355.92 127.94 359.32 130.05L356.16 135.14ZM652.37 132.68L650.6 126.95C654.78 125.66 658.46 124.32 661.55 122.96L663.97 128.45C660.67 129.89 656.77 131.32 652.37 132.68ZM335.45 123.59C331.95 121.84 328.34 120.13 324.72 118.52L327.16 113.04C330.86 114.69 334.55 116.43 338.13 118.22L335.45 123.59ZM675.01 121.75L670.99 117.3C671.48 116.85 671.92 116.41 672.29 115.97C673.86 114.14 676.37 111.77 679.77 108.94L683.61 113.55C679.7 116.81 677.78 118.79 676.85 119.87C676.31 120.49 675.69 121.13 675.01 121.75ZM313.77 113.92C310.11 112.47 306.36 111.09 302.64 109.79L304.61 104.12C308.41 105.44 312.24 106.86 315.97 108.34L313.77 113.92ZM692.95 106.26L689.39 101.43C692.54 99.11 695.89 96.76 699.32 94.44L702.68 99.41C699.31 101.69 696.04 103.99 692.95 106.26ZM291.36 106.14C287.72 105.06 283.87 104.01 279.91 103.02L281.36 97.2C285.4 98.21 289.34 99.28 293.07 100.39L291.36 106.14ZM268.31 100.36C264.48 99.55 260.55 98.8 256.63 98.11L257.66 92.2C261.65 92.9 265.65 93.67 269.55 94.49L268.31 100.36ZM149.69 98.79C145.65 98.62 141.54 98.25 137.46 97.66L138.31 91.72C142.19 92.27 146.1 92.63 149.94 92.79L149.69 98.79ZM162 98.66L161.62 92.67C165.49 92.42 169.39 91.96 173.21 91.3L174.23 97.21C170.2 97.91 166.08 98.4 162 98.66ZM848.05 96.63L847.75 90.64C851.76 90.44 855.63 89.98 859.24 89.28L860.39 95.17C856.49 95.92 852.35 96.41 848.05 96.63ZM835.72 96.54C831.81 96.31 827.71 95.88 823.53 95.26L824.4 89.32C828.41 89.91 832.34 90.32 836.08 90.55L835.72 96.54ZM244.87 96.26C240.91 95.71 236.94 95.22 233.06 94.83L233.67 88.86C237.62 89.27 241.66 89.76 245.69 90.32L244.87 96.26ZM125.41 95.37C121.52 94.44 117.56 93.31 113.64 92.01L115.53 86.31C119.29 87.56 123.08 88.64 126.81 89.53L125.41 95.37ZM185.96 94.89L185.01 88.97C188.72 88.37 192.84 87.94 197.24 87.69L197.58 93.68C193.39 93.92 189.48 94.32 185.96 94.89ZM221.23 93.85C217.15 93.6 213.16 93.46 209.39 93.42L209.45 87.42C213.32 87.46 217.41 87.61 221.6 87.86L221.23 93.85ZM811.52 93.07C807.72 92.25 803.74 91.26 799.7 90.15L801.29 84.36C805.22 85.44 809.09 86.4 812.79 87.2L811.52 93.07ZM712.67 92.96L709.51 87.86C713.09 85.65 716.61 83.57 719.99 81.7L722.91 86.94C719.61 88.77 716.17 90.79 712.67 92.96ZM872.42 91.72L870.24 86.13C873.84 84.73 877.23 82.98 880.31 80.93L883.63 85.93C880.19 88.21 876.42 90.16 872.42 91.72ZM102.21 87.71C98.54 86.17 94.81 84.45 91.13 82.6L93.83 77.24C97.38 79.03 100.98 80.69 104.53 82.18L102.21 87.71ZM788.08 86.66C784.41 85.48 780.67 84.19 776.63 82.74L778.66 77.1C782.64 78.53 786.32 79.8 789.93 80.96L788.08 86.66ZM733.41 81.51L730.84 76.09C735.01 74.12 738.86 72.54 742.28 71.39L744.18 77.08C740.99 78.14 737.36 79.63 733.41 81.51ZM765.32 78.53C761.84 77.21 758.83 76.07 756.79 75.41C756.23 75.23 755.57 75.12 754.81 75.07L755.16 69.08C756.42 69.15 757.59 69.36 758.63 69.69C760.82 70.4 763.9 71.56 767.46 72.91L765.32 78.53ZM893.37 78.34L889.48 73.78C892.3 71.38 895.16 68.77 898.22 65.83L902.38 70.15C899.23 73.17 896.28 75.86 893.37 78.34ZM80.42 76.77C76.99 74.77 73.52 72.6 70.09 70.33L73.4 65.33C76.73 67.54 80.12 69.65 83.45 71.59L80.42 76.77ZM60.12 63.35C56.93 60.99 53.7 58.49 50.52 55.9L54.3 51.24C57.41 53.76 60.56 56.21 63.68 58.51L60.12 63.35ZM910.93 61.6L906.63 57.41C907.86 56.15 909.07 54.9 910.27 53.65C911.86 52.01 913.43 50.39 914.99 48.79L919.28 52.99C917.72 54.58 916.16 56.19 914.58 57.82C913.38 59.08 912.17 60.33 910.93 61.6ZM41.26 48.04C38.27 45.39 35.27 42.62 32.34 39.81L36.5 35.48C39.37 38.24 42.32 40.95 45.24 43.55L41.26 48.04ZM927.75 44.68L923.66 40.29C926.96 37.21 930.01 34.6 932.99 32.31L936.65 37.07C933.81 39.24 930.9 41.73 927.75 44.68ZM23.75 31.25C20.96 28.36 18.18 25.37 15.49 22.36L19.96 18.36C22.6 21.31 25.33 24.24 28.07 27.08L23.75 31.25ZM946.25 30.7L943.34 25.45C947.11 23.36 950.86 21.71 954.8 20.4L956.69 26.1C953.11 27.29 949.69 28.8 946.25 30.7ZM998.85 25.65C996.13 25.03 993.44 24.52 990.85 24.12L991.77 18.19C994.49 18.61 997.32 19.15 1000.17 19.8L998.85 25.65ZM967.8 23.57L967.01 17.62C970.2 17.2 973.54 16.98 976.94 16.98C976.95 16.98 976.95 16.98 976.96 16.98C977.78 16.98 978.61 16.99 979.45 17.02L979.28 23.02C978.49 23 977.75 22.97 976.94 22.99C973.81 22.98 970.74 23.18 967.8 23.57ZM7.57 13.15C2.72 7.29 0.11 3.64 0 3.49L4.88 0C4.9 0.04 7.5 3.64 12.19 9.33L7.57 13.15Z" fill="#F4831F"/>
</g>
<defs>
<clipPath id="clip0_1596_41071">
<rect width="1000.17" height="218.89" fill="white"/>
</clipPath>
</defs>
</svg>
