<svg width="20" height="26" viewBox="0 0 20 26" fill="none" xmlns="http://www.w3.org/2000/svg">
<path d="M1.42857 23.1111C1.42857 24.7 2.71429 26 4.28571 26H15.7143C17.2857 26 18.5714 24.7 18.5714 23.1111V8.66667C18.5714 7.07778 17.2857 5.77778 15.7143 5.77778H4.28571C2.71429 5.77778 1.42857 7.07778 1.42857 8.66667V23.1111ZM18.5714 1.44444H15L13.9857 0.418889C13.7286 0.158889 13.3571 0 12.9857 0H7.01429C6.64286 0 6.27143 0.158889 6.01429 0.418889L5 1.44444H1.42857C0.642857 1.44444 0 2.09444 0 2.88889C0 3.68333 0.642857 4.33333 1.42857 4.33333H18.5714C19.3571 4.33333 20 3.68333 20 2.88889C20 2.09444 19.3571 1.44444 18.5714 1.44444Z" fill="#002D45"/>
</svg>
