<svg width="24" height="24" viewBox="0 0 24 24" fill="none" xmlns="http://www.w3.org/2000/svg">
<path d="M12 17.3625C11.575 17.3625 11.219 17.2185 10.932 16.9305C10.644 16.6435 10.5 16.2875 10.5 15.8625V5.1375L7.6875 7.95C7.3875 8.25 7.0375 8.4 6.6375 8.4C6.2375 8.4 5.875 8.2375 5.55 7.9125C5.25 7.6125 5.1065 7.256 5.1195 6.843C5.1315 6.431 5.275 6.0875 5.55 5.8125L10.95 0.412499C11.1 0.262499 11.2625 0.156 11.4375 0.0929997C11.6125 0.0309997 11.8 0 12 0C12.2 0 12.3875 0.0309997 12.5625 0.0929997C12.7375 0.156 12.9 0.262499 13.05 0.412499L18.45 5.8125C18.75 6.1125 18.8935 6.4685 18.8805 6.8805C18.8685 7.2935 18.725 7.6375 18.45 7.9125C18.15 8.2125 17.794 8.3685 17.382 8.3805C16.969 8.3935 16.6125 8.25 16.3125 7.95L13.5 5.1375V15.8625C13.5 16.2875 13.3565 16.6435 13.0695 16.9305C12.7815 17.2185 12.425 17.3625 12 17.3625ZM3 23.3625C2.175 23.3625 1.469 23.069 0.882 22.482C0.294 21.894 0 21.1875 0 20.3625V17.3625C0 16.9375 0.1435 16.581 0.4305 16.293C0.7185 16.006 1.075 15.8625 1.5 15.8625C1.925 15.8625 2.2815 16.006 2.5695 16.293C2.8565 16.581 3 16.9375 3 17.3625V20.3625H21V17.3625C21 16.9375 21.144 16.581 21.432 16.293C21.719 16.006 22.075 15.8625 22.5 15.8625C22.925 15.8625 23.281 16.006 23.568 16.293C23.856 16.581 24 16.9375 24 17.3625V20.3625C24 21.1875 23.7065 21.894 23.1195 22.482C22.5315 23.069 21.825 23.3625 21 23.3625H3Z" fill="white"/>
</svg>
