<svg width="49" height="48" viewBox="0 0 49 48" fill="none" xmlns="http://www.w3.org/2000/svg">
<rect x="0.428711" width="48" height="48" rx="24" fill="#00B6CE"/>
<path d="M24.4287 29.5931C24.0037 29.5931 23.6477 29.4513 23.3607 29.1678C23.0727 28.8853 22.9287 28.5348 22.9287 28.1164V17.5578L20.1162 20.3266C19.8162 20.622 19.4662 20.7697 19.0662 20.7697C18.6662 20.7697 18.3037 20.6097 17.9787 20.2897C17.6787 19.9944 17.5352 19.6434 17.5482 19.2368C17.5602 18.8312 17.7037 18.493 17.9787 18.2223L23.3787 12.9061C23.5287 12.7584 23.6912 12.6536 23.8662 12.5916C24.0412 12.5305 24.2287 12.5 24.4287 12.5C24.6287 12.5 24.8162 12.5305 24.9912 12.5916C25.1662 12.6536 25.3287 12.7584 25.4787 12.9061L30.8787 18.2223C31.1787 18.5177 31.3222 18.8681 31.3092 19.2737C31.2972 19.6803 31.1537 20.019 30.8787 20.2897C30.5787 20.5851 30.2227 20.7387 29.8107 20.7505C29.3977 20.7633 29.0412 20.622 28.7412 20.3266L25.9287 17.5578V28.1164C25.9287 28.5348 25.7852 28.8853 25.4982 29.1678C25.2102 29.4513 24.8537 29.5931 24.4287 29.5931ZM15.4287 35.5C14.6037 35.5 13.8977 35.2111 13.3107 34.6332C12.7227 34.0543 12.4287 33.3587 12.4287 32.5465V29.5931C12.4287 29.1747 12.5722 28.8237 12.8592 28.5402C13.1472 28.2576 13.5037 28.1164 13.9287 28.1164C14.3537 28.1164 14.7102 28.2576 14.9982 28.5402C15.2852 28.8237 15.4287 29.1747 15.4287 29.5931V32.5465H33.4287V29.5931C33.4287 29.1747 33.5727 28.8237 33.8607 28.5402C34.1477 28.2576 34.5037 28.1164 34.9287 28.1164C35.3537 28.1164 35.7097 28.2576 35.9967 28.5402C36.2847 28.8237 36.4287 29.1747 36.4287 29.5931V32.5465C36.4287 33.3587 36.1352 34.0543 35.5482 34.6332C34.9602 35.2111 34.2537 35.5 33.4287 35.5H15.4287Z" fill="white"/>
</svg>
