<svg width="24" height="24" viewBox="0 0 24 24" fill="none" xmlns="http://www.w3.org/2000/svg">
<g id="Vector">
<path id="Vector_2" d="M12 17.5931C11.575 17.5931 11.219 17.4513 10.932 17.1678C10.644 16.8853 10.5 16.5348 10.5 16.1164V5.55778L7.6875 8.32665C7.3875 8.62199 7.0375 8.76966 6.6375 8.76966C6.2375 8.76966 5.875 8.60968 5.55 8.28973C5.25 7.99438 5.1065 7.64341 5.1195 7.23682C5.1315 6.83122 5.275 6.49304 5.55 6.22231L10.95 0.906099C11.1 0.758426 11.2625 0.653579 11.4375 0.591557C11.6125 0.530519 11.8 0.5 12 0.5C12.2 0.5 12.3875 0.530519 12.5625 0.591557C12.7375 0.653579 12.9 0.758426 13.05 0.906099L18.45 6.22231C18.75 6.51766 18.8935 6.86813 18.8805 7.27374C18.8685 7.68033 18.725 8.01899 18.45 8.28973C18.15 8.58507 17.794 8.73865 17.382 8.75047C16.969 8.76326 16.6125 8.62199 16.3125 8.32665L13.5 5.55778V16.1164C13.5 16.5348 13.3565 16.8853 13.0695 17.1678C12.7815 17.4513 12.425 17.5931 12 17.5931ZM3 23.5C2.175 23.5 1.469 23.2111 0.882 22.6332C0.294 22.0543 0 21.3587 0 20.5465V17.5931C0 17.1747 0.1435 16.8237 0.4305 16.5402C0.7185 16.2576 1.075 16.1164 1.5 16.1164C1.925 16.1164 2.2815 16.2576 2.5695 16.5402C2.8565 16.8237 3 17.1747 3 17.5931V20.5465H21V17.5931C21 17.1747 21.144 16.8237 21.432 16.5402C21.719 16.2576 22.075 16.1164 22.5 16.1164C22.925 16.1164 23.281 16.2576 23.568 16.5402C23.856 16.8237 24 17.1747 24 17.5931V20.5465C24 21.3587 23.7065 22.0543 23.1195 22.6332C22.5315 23.2111 21.825 23.5 21 23.5H3Z" fill="white"/>
</g>
</svg>
