<svg width="24" height="24" viewBox="0 0 24 24" fill="none" xmlns="http://www.w3.org/2000/svg">
<path d="M21.6007 4.41297C21.0683 3.88055 20.2082 3.88055 19.6758 4.41297L13 11.0751L6.32423 4.39932C5.79181 3.86689 4.93174 3.86689 4.39932 4.39932C3.86689 4.93174 3.86689 5.79181 4.39932 6.32423L11.0751 13L4.39932 19.6758C3.86689 20.2082 3.86689 21.0683 4.39932 21.6007C4.93174 22.1331 5.79181 22.1331 6.32423 21.6007L13 14.9249L19.6758 21.6007C20.2082 22.1331 21.0683 22.1331 21.6007 21.6007C22.1331 21.0683 22.1331 20.2082 21.6007 19.6758L14.9249 13L21.6007 6.32423C22.1195 5.80546 22.1195 4.93174 21.6007 4.41297Z" fill="#002D45"/>
</svg>
