<svg width="280" height="185" viewBox="0 0 280 185" fill="none" xmlns="http://www.w3.org/2000/svg">
<path fill-rule="evenodd" clip-rule="evenodd" d="M59.4199 118.203L61.6577 110.764C66.6372 112.263 71.5589 113.383 76.2677 114.098L75.1104 121.785C70.0261 121.005 64.7619 119.803 59.4199 118.203ZM44.4153 112.733C39.7447 110.753 34.9294 108.447 30.0989 105.873L33.7424 99.0034C38.3785 101.466 42.9953 103.675 47.4584 105.581L44.4153 112.733ZM16.3977 97.9806C12.1178 95.3283 7.69214 92.3904 3.2455 89.2799L7.70235 82.9063C12.0278 85.9323 16.3322 88.7858 20.4988 91.3702L16.3977 97.9806ZM91.2877 122.805L91.0579 115.036C96.0588 114.893 100.956 114.231 105.605 113.068L107.482 120.612C102.294 121.899 96.8462 122.64 91.2877 122.805ZM122.665 115.585L119.901 108.33C124.385 106.627 129.009 104.686 134.02 102.429L137.218 109.508C132.062 111.824 127.293 113.824 122.665 115.585ZM151.366 102.792L147.941 95.8104C149.99 94.8076 152.009 93.8084 154.017 92.8048L154.52 92.5565L154.523 92.555C157.003 91.3303 159.455 90.1195 161.888 88.9263L165.297 95.9158C162.784 97.1381 160.263 98.3834 157.711 99.6436L157.7 99.6494L157.463 99.7663C155.451 100.782 153.431 101.781 151.366 102.792ZM179.243 89.4578L176.161 82.3234C181.527 79.9997 186.382 78.1408 191.014 76.6419L193.41 84.0408C189.002 85.4541 184.369 87.2275 179.243 89.4578ZM207.892 80.4411L206.624 72.7703C212.132 71.8589 217.424 71.4756 222.801 71.5897L222.629 79.3662C217.744 79.2621 212.915 79.618 207.892 80.4411Z" fill="#F4831F"/>
</svg>
