<?xml version="1.0" encoding="UTF-8"?>
<svg id="Layer_1" xmlns="http://www.w3.org/2000/svg" version="1.1" viewBox="0 0 327 185">
  <!-- Generator: Adobe Illustrator 29.3.1, SVG Export Plug-In . SVG Version: 2.1.0 Build 151)  -->
  <defs>
    <style>
      .st0 {
        fill: #f4831f;
      }
    </style>
  </defs>
  <path class="st0" d="M59,118.2l2.2-7.4c5,1.5,9.9,2.6,14.6,3.3l-1.2,7.7c-5.1-.8-10.3-2-15.7-3.6ZM44,112.7c-4.7-2-9.5-4.3-14.3-6.9l3.6-6.9c4.6,2.5,9.3,4.7,13.7,6.6l-3,7.2ZM16,98c-4.3-2.7-8.7-5.6-13.2-8.7l4.5-6.4c4.3,3,8.6,5.9,12.8,8.5l-4.1,6.6ZM90.9,122.8l-.2-7.8c5-.1,9.9-.8,14.5-2l1.9,7.5c-5.2,1.3-10.6,2-16.2,2.2ZM122.2,115.6l-2.8-7.3c4.5-1.7,9.1-3.6,14.1-5.9l3.2,7.1c-5.2,2.3-9.9,4.3-14.6,6.1ZM150.9,102.8l-3.4-7c2-1,4.1-2,6.1-3,2.7-1.3,5.3-2.6,7.9-3.9l3.4,7c-2.6,1.3-5.2,2.5-7.8,3.9-2,1-4,2-6.1,3ZM178.8,89.4l-3.1-7.1c5.4-2.3,10.2-4.2,14.9-5.7l2.4,7.4c-4.4,1.4-9,3.2-14.2,5.4ZM207.5,80.4l-1.3-7.7c5.5-.9,10.8-1.3,16.2-1.2l-.2,7.8c-4.9-.1-9.7.3-14.7,1.1ZM273.8,97.1c-3-1.9-6.1-3.7-9.1-5.3l3.7-6.8c3.1,1.7,6.4,3.6,9.5,5.6l-4.2,6.6ZM236.9,81.1l1.6-7.6c4.1.9,8.2,2.1,12.4,3.5t0,0c1,.4,2,.7,3,1.1l-2.8,7.2c-1-.4-1.8-.7-2.8-1.1-3.8-1.4-7.6-2.5-11.4-3.3Z"/>
  <path class="st0" d="M299.8,129l-11.5-44.1,5.3-1.5,11.5,44.1-5.3,1.5Z"/>
  <path class="st0" d="M275.9,114.8l-1.4-5.2,42.8-11.9,1.4,5.2-42.8,11.9Z"/>
</svg>