<svg width="327" height="185" viewBox="0 0 327 185" fill="none" xmlns="http://www.w3.org/2000/svg">
<path d="M59.6342 118.203L61.8721 110.764C66.8515 112.263 71.7732 113.383 76.482 114.098L75.3248 121.785C70.2404 121.005 64.9763 119.803 59.6342 118.203ZM44.6296 112.733C39.9591 110.753 35.1437 108.447 30.3133 105.873L33.9568 99.0034C38.5929 101.466 43.2096 103.675 47.6728 105.581L44.6296 112.733ZM16.612 97.9806C12.3321 95.3283 7.9065 92.3904 3.45986 89.2799L7.9167 82.9063C12.2422 85.9323 16.5466 88.7858 20.7132 91.3702L16.612 97.9806ZM91.5021 122.805L91.2723 115.036C96.2732 114.893 101.17 114.231 105.819 113.068L107.696 120.612C102.508 121.899 97.0605 122.64 91.5021 122.805ZM122.879 115.585L120.115 108.33C124.599 106.627 129.223 104.686 134.235 102.429L137.432 109.508C132.276 111.824 127.508 113.824 122.879 115.585ZM151.581 102.792L148.156 95.8104C150.204 94.8076 152.224 93.8084 154.231 92.8048C156.884 91.4948 159.504 90.2005 162.103 88.9263L165.511 95.9158C162.917 97.1778 160.313 98.4642 157.677 99.7663C155.665 100.782 153.646 101.781 151.581 102.792ZM179.458 89.4578L176.376 82.3234C181.741 79.9997 186.597 78.1408 191.228 76.6419L193.624 84.0408C189.216 85.4541 184.583 87.2275 179.458 89.4578ZM208.106 80.4411L206.838 72.7703C212.346 71.8589 217.639 71.4756 223.015 71.5897L222.844 79.3662C217.958 79.2621 213.129 79.618 208.106 80.4411ZM274.478 97.1427C271.429 95.2039 268.369 93.4123 265.382 91.7985L269.083 84.9628C272.219 86.6576 275.437 88.5465 278.632 90.5785L274.478 97.1427ZM237.499 81.1083L239.121 73.5049C243.196 74.379 247.366 75.5624 251.515 77.0403C251.527 77.0446 251.527 77.0446 251.539 77.049C252.54 77.4054 253.548 77.7784 254.56 78.1801L251.744 85.4272C250.789 85.0594 249.899 84.7012 248.902 84.3735C245.088 83.0008 241.255 81.9104 237.499 81.1083Z" fill="#F4831F"/>
<path d="M300.439 129.005L288.94 84.9371L294.22 83.4715L305.718 127.539L300.439 129.005Z" fill="#F4831F"/>
<path d="M276.584 114.802L275.223 109.588L318.061 97.6915L319.422 102.905L276.584 114.802Z" fill="#F4831F"/>
</svg>
