<svg width="280" height="185" viewBox="0 0 280 185" fill="none" xmlns="http://www.w3.org/2000/svg">
<path fill-rule="evenodd" clip-rule="evenodd" d="M61.4434 110.764L59.2055 118.203C64.5475 119.803 69.8117 121.005 74.8961 121.785L76.0533 114.098C71.3445 113.383 66.4228 112.263 61.4434 110.764ZM29.8846 105.873C34.715 108.447 39.5304 110.753 44.2009 112.733L47.2441 105.581C42.7809 103.675 38.1642 101.466 33.5281 99.0034L29.8846 105.873ZM3.03115 89.2799C7.47778 92.3904 11.9034 95.3283 16.1833 97.9806L20.2844 91.3702C16.1179 88.7858 11.8135 85.9323 7.48799 82.9063L3.03115 89.2799ZM90.8436 115.036L91.0733 122.805C96.6318 122.64 102.079 121.899 107.267 120.612L105.39 113.068C100.741 114.231 95.8444 114.893 90.8436 115.036ZM119.687 108.33L122.45 115.585C127.079 113.824 131.848 111.824 137.004 109.508L133.806 102.429C128.794 104.686 124.17 106.627 119.687 108.33Z" fill="#F4831F"/>
</svg>
